<svg width="200" height="200" viewBox="0 0 200 200" fill="none" xmlns="http://www.w3.org/2000/svg">
<rect width="200" height="200" rx="40" fill="white"/>
<path d="M52.24 153.14C44.5867 153.14 39.36 148.753 36.56 139.98C33.8533 131.207 32.5 120.007 32.5 106.38C32.5 97.5133 34.0867 89.2067 37.26 81.46C40.5267 73.62 45.4733 67.32 52.1 62.56C58.7267 57.7067 66.8 55.28 76.32 55.28C83.9733 55.28 90.9267 56.9133 97.18 60.18C103.433 63.3533 108.38 67.9267 112.02 73.9C115.753 79.8733 117.62 86.78 117.62 94.62C117.62 103.673 115.8 111.28 112.16 117.44C108.52 123.6 103.807 128.173 98.02 131.16C92.2333 134.147 86.12 135.64 79.68 135.64C74.4533 135.64 69.6467 134.753 65.26 132.98C65.82 135.967 66.1 138.253 66.1 139.84C66.1 148.707 61.48 153.14 52.24 153.14ZM77.72 113.94C81.08 113.94 83.9733 112.727 86.4 110.3C88.92 107.78 90.18 104.887 90.18 101.62C90.18 98.26 88.92 95.3667 86.4 92.94C83.9733 90.42 81.08 89.16 77.72 89.16C74.4533 89.16 71.56 90.42 69.04 92.94C66.52 95.3667 65.26 98.26 65.26 101.62C65.26 104.887 66.52 107.78 69.04 110.3C71.56 112.727 74.4533 113.94 77.72 113.94ZM133.468 61.58C136.175 57.1933 140.702 55 147.048 55C153.115 55 157.502 57.1 160.208 61.3C163.008 65.5 164.408 70.5867 164.408 76.56C164.408 81.5067 163.942 87.0133 163.008 93.08C162.075 99.0533 160.768 104.42 159.088 109.18C158.248 111.513 156.802 113.567 154.748 115.34C152.788 117.02 150.222 117.86 147.048 117.86C143.875 117.86 141.262 117.02 139.208 115.34C137.155 113.567 135.708 111.513 134.868 109.18C133.188 104.513 131.882 99.2867 130.948 93.5C130.015 87.62 129.548 82.3 129.548 77.54C129.548 71.1933 130.855 65.8733 133.468 61.58ZM157.128 147.96C154.235 150.853 150.828 152.3 146.908 152.3C142.988 152.3 139.582 150.853 136.688 147.96C133.795 145.067 132.348 141.66 132.348 137.74C132.348 133.82 133.795 130.413 136.688 127.52C139.582 124.627 142.988 123.18 146.908 123.18C150.828 123.18 154.235 124.627 157.128 127.52C160.022 130.413 161.468 133.82 161.468 137.74C161.468 141.66 160.022 145.067 157.128 147.96Z" fill="url(#paint0_linear_610_370)"/>
<defs>
<linearGradient id="paint0_linear_610_370" x1="29" y1="24.9861" x2="181.048" y2="38.2466" gradientUnits="userSpaceOnUse">
<stop stop-color="#FF458D"/>
<stop offset="1" stop-color="#FF67A2"/>
</linearGradient>
</defs>
</svg>
