<svg width="225" height="36" viewBox="0 0 225 36" fill="none" xmlns="http://www.w3.org/2000/svg">
<path d="M100.312 20.198V21.656C100.612 21.176 101.008 20.774 101.5 20.45C102.004 20.114 102.646 19.946 103.426 19.946C104.182 19.946 104.842 20.138 105.406 20.522C105.97 20.906 106.378 21.434 106.63 22.106C106.942 21.446 107.416 20.924 108.052 20.54C108.688 20.144 109.432 19.946 110.284 19.946C111.016 19.946 111.664 20.126 112.228 20.486C112.804 20.834 113.254 21.332 113.578 21.98C113.902 22.628 114.064 23.378 114.064 24.23V30.494H112.21V24.536C112.21 23.612 112 22.886 111.58 22.358C111.16 21.83 110.584 21.566 109.852 21.566C109.348 21.566 108.892 21.716 108.484 22.016C108.076 22.316 107.758 22.724 107.53 23.24C107.302 23.756 107.188 24.326 107.188 24.95V30.494H105.334V24.608C105.334 23.648 105.124 22.904 104.704 22.376C104.284 21.836 103.708 21.566 102.976 21.566C102.472 21.566 102.016 21.716 101.608 22.016C101.212 22.316 100.894 22.724 100.654 23.24C100.426 23.756 100.312 24.32 100.312 24.932V30.494H98.458V20.198H100.312ZM120.898 30.746C119.938 30.746 119.068 30.512 118.288 30.044C117.52 29.576 116.914 28.928 116.47 28.1C116.026 27.272 115.804 26.354 115.804 25.346C115.804 24.338 116.026 23.42 116.47 22.592C116.914 21.764 117.52 21.116 118.288 20.648C119.068 20.18 119.938 19.946 120.898 19.946C121.774 19.946 122.53 20.12 123.166 20.468C123.802 20.816 124.264 21.236 124.552 21.728V20.198H126.406V30.494H124.552V28.964C124.264 29.456 123.802 29.876 123.166 30.224C122.53 30.572 121.774 30.746 120.898 30.746ZM121.06 29.108C121.744 29.108 122.35 28.946 122.878 28.622C123.418 28.286 123.838 27.836 124.138 27.272C124.438 26.696 124.588 26.054 124.588 25.346C124.588 24.638 124.438 24.002 124.138 23.438C123.838 22.862 123.418 22.412 122.878 22.088C122.35 21.752 121.744 21.584 121.06 21.584C120.388 21.584 119.788 21.746 119.26 22.07C118.744 22.394 118.342 22.844 118.054 23.42C117.766 23.996 117.622 24.638 117.622 25.346C117.622 26.054 117.766 26.696 118.054 27.272C118.342 27.848 118.744 28.298 119.26 28.622C119.788 28.946 120.388 29.108 121.06 29.108ZM130.811 20.198V21.764C131.075 21.296 131.507 20.876 132.107 20.504C132.719 20.132 133.451 19.946 134.303 19.946C135.107 19.946 135.821 20.132 136.445 20.504C137.081 20.876 137.573 21.404 137.921 22.088C138.269 22.76 138.443 23.552 138.443 24.464V30.494H136.589V24.788C136.589 23.756 136.349 22.964 135.869 22.412C135.401 21.848 134.747 21.566 133.907 21.566C133.319 21.566 132.791 21.734 132.323 22.07C131.855 22.394 131.483 22.832 131.207 23.384C130.943 23.936 130.811 24.53 130.811 25.166V30.494H128.957V20.198H130.811ZM145.262 30.746C144.302 30.746 143.432 30.512 142.652 30.044C141.884 29.576 141.278 28.928 140.834 28.1C140.39 27.272 140.168 26.354 140.168 25.346C140.168 24.338 140.39 23.42 140.834 22.592C141.278 21.764 141.884 21.116 142.652 20.648C143.432 20.18 144.302 19.946 145.262 19.946C146.138 19.946 146.894 20.12 147.53 20.468C148.166 20.816 148.628 21.236 148.916 21.728V20.198H150.77V30.494H148.916V28.964C148.628 29.456 148.166 29.876 147.53 30.224C146.894 30.572 146.138 30.746 145.262 30.746ZM145.424 29.108C146.108 29.108 146.714 28.946 147.242 28.622C147.782 28.286 148.202 27.836 148.502 27.272C148.802 26.696 148.952 26.054 148.952 25.346C148.952 24.638 148.802 24.002 148.502 23.438C148.202 22.862 147.782 22.412 147.242 22.088C146.714 21.752 146.108 21.584 145.424 21.584C144.752 21.584 144.152 21.746 143.624 22.07C143.108 22.394 142.706 22.844 142.418 23.42C142.13 23.996 141.986 24.638 141.986 25.346C141.986 26.054 142.13 26.696 142.418 27.272C142.706 27.848 143.108 28.298 143.624 28.622C144.152 28.946 144.752 29.108 145.424 29.108ZM158.361 35.12C156.969 35.12 155.853 34.772 155.013 34.076C154.185 33.392 153.675 32.522 153.483 31.466H155.373C155.493 32.066 155.799 32.558 156.291 32.942C156.795 33.326 157.485 33.518 158.361 33.518C159.309 33.518 160.071 33.218 160.647 32.618C161.235 32.03 161.529 31.238 161.529 30.242V28.82C161.241 29.312 160.779 29.732 160.143 30.08C159.507 30.428 158.751 30.602 157.875 30.602C156.915 30.602 156.045 30.368 155.265 29.9C154.497 29.444 153.891 28.814 153.447 28.01C153.003 27.194 152.781 26.288 152.781 25.292C152.781 24.296 153.003 23.39 153.447 22.574C153.891 21.758 154.497 21.116 155.265 20.648C156.045 20.18 156.915 19.946 157.875 19.946C158.751 19.946 159.507 20.12 160.143 20.468C160.779 20.816 161.241 21.236 161.529 21.728V20.198H163.383V30.26C163.383 31.196 163.167 32.03 162.735 32.762C162.315 33.506 161.721 34.082 160.953 34.49C160.197 34.91 159.333 35.12 158.361 35.12ZM158.037 29C158.721 29 159.327 28.838 159.855 28.514C160.395 28.19 160.815 27.746 161.115 27.182C161.415 26.618 161.565 25.988 161.565 25.292C161.565 24.596 161.415 23.966 161.115 23.402C160.815 22.838 160.395 22.394 159.855 22.07C159.327 21.746 158.721 21.584 158.037 21.584C157.365 21.584 156.765 21.746 156.237 22.07C155.721 22.394 155.319 22.838 155.031 23.402C154.743 23.966 154.599 24.596 154.599 25.292C154.599 25.988 154.743 26.618 155.031 27.182C155.319 27.746 155.721 28.19 156.237 28.514C156.765 28.838 157.365 29 158.037 29ZM170.559 30.746C169.575 30.746 168.687 30.512 167.895 30.044C167.115 29.576 166.503 28.934 166.059 28.118C165.615 27.29 165.393 26.366 165.393 25.346C165.393 24.326 165.615 23.408 166.059 22.592C166.503 21.764 167.115 21.116 167.895 20.648C168.687 20.18 169.575 19.946 170.559 19.946C171.543 19.946 172.425 20.18 173.205 20.648C173.997 21.116 174.609 21.764 175.041 22.592C175.485 23.408 175.707 24.326 175.707 25.346C175.707 25.682 175.695 25.934 175.671 26.102H167.247C167.343 27.002 167.691 27.74 168.291 28.316C168.903 28.892 169.659 29.18 170.559 29.18C171.243 29.18 171.843 29.042 172.359 28.766C172.887 28.478 173.247 28.118 173.439 27.686H175.329C175.041 28.586 174.465 29.318 173.601 29.882C172.737 30.458 171.723 30.746 170.559 30.746ZM173.889 24.59C173.781 23.678 173.427 22.94 172.827 22.376C172.227 21.8 171.471 21.512 170.559 21.512C169.647 21.512 168.891 21.8 168.291 22.376C167.691 22.94 167.343 23.678 167.247 24.59H173.889ZM179.556 20.198V21.656C179.856 21.176 180.252 20.774 180.744 20.45C181.248 20.114 181.89 19.946 182.67 19.946C183.426 19.946 184.086 20.138 184.65 20.522C185.214 20.906 185.622 21.434 185.874 22.106C186.186 21.446 186.66 20.924 187.296 20.54C187.932 20.144 188.676 19.946 189.528 19.946C190.26 19.946 190.908 20.126 191.472 20.486C192.048 20.834 192.498 21.332 192.822 21.98C193.146 22.628 193.308 23.378 193.308 24.23V30.494H191.454V24.536C191.454 23.612 191.244 22.886 190.824 22.358C190.404 21.83 189.828 21.566 189.096 21.566C188.592 21.566 188.136 21.716 187.728 22.016C187.32 22.316 187.002 22.724 186.774 23.24C186.546 23.756 186.432 24.326 186.432 24.95V30.494H184.578V24.608C184.578 23.648 184.368 22.904 183.948 22.376C183.528 21.836 182.952 21.566 182.22 21.566C181.716 21.566 181.26 21.716 180.852 22.016C180.456 22.316 180.138 22.724 179.898 23.24C179.67 23.756 179.556 24.32 179.556 24.932V30.494H177.702V20.198H179.556ZM200.214 30.746C199.23 30.746 198.342 30.512 197.55 30.044C196.77 29.576 196.158 28.934 195.714 28.118C195.27 27.29 195.048 26.366 195.048 25.346C195.048 24.326 195.27 23.408 195.714 22.592C196.158 21.764 196.77 21.116 197.55 20.648C198.342 20.18 199.23 19.946 200.214 19.946C201.198 19.946 202.08 20.18 202.86 20.648C203.652 21.116 204.264 21.764 204.696 22.592C205.14 23.408 205.362 24.326 205.362 25.346C205.362 25.682 205.35 25.934 205.326 26.102H196.902C196.998 27.002 197.346 27.74 197.946 28.316C198.558 28.892 199.314 29.18 200.214 29.18C200.898 29.18 201.498 29.042 202.014 28.766C202.542 28.478 202.902 28.118 203.094 27.686H204.984C204.696 28.586 204.12 29.318 203.256 29.882C202.392 30.458 201.378 30.746 200.214 30.746ZM203.544 24.59C203.436 23.678 203.082 22.94 202.482 22.376C201.882 21.8 201.126 21.512 200.214 21.512C199.302 21.512 198.546 21.8 197.946 22.376C197.346 22.94 196.998 23.678 196.902 24.59H203.544ZM209.211 20.198V21.764C209.475 21.296 209.907 20.876 210.507 20.504C211.119 20.132 211.851 19.946 212.703 19.946C213.507 19.946 214.221 20.132 214.845 20.504C215.481 20.876 215.973 21.404 216.321 22.088C216.669 22.76 216.843 23.552 216.843 24.464V30.494H214.989V24.788C214.989 23.756 214.749 22.964 214.269 22.412C213.801 21.848 213.147 21.566 212.307 21.566C211.719 21.566 211.191 21.734 210.723 22.07C210.255 22.394 209.883 22.832 209.607 23.384C209.343 23.936 209.211 24.53 209.211 25.166V30.494H207.357V20.198H209.211ZM224.35 21.836H222.064V30.494H220.21V21.836H217.924V20.198H220.21V17.066H222.064V20.198H224.35V21.836Z" fill="#59595A"/>
<path d="M6.64 33.04C4.45333 33.04 2.96 31.7867 2.16 29.28C1.38667 26.7733 1 23.5733 1 19.68C1 17.1467 1.45333 14.7733 2.36 12.56C3.29333 10.32 4.70667 8.52 6.6 7.16C8.49333 5.77333 10.8 5.08 13.52 5.08C15.7067 5.08 17.6933 5.54667 19.48 6.48C21.2667 7.38667 22.68 8.69333 23.72 10.4C24.7867 12.1067 25.32 14.08 25.32 16.32C25.32 18.9067 24.8 21.08 23.76 22.84C22.72 24.6 21.3733 25.9067 19.72 26.76C18.0667 27.6133 16.32 28.04 14.48 28.04C12.9867 28.04 11.6133 27.7867 10.36 27.28C10.52 28.1333 10.6 28.7867 10.6 29.24C10.6 31.7733 9.28 33.04 6.64 33.04ZM13.92 21.84C14.88 21.84 15.7067 21.4933 16.4 20.8C17.12 20.08 17.48 19.2533 17.48 18.32C17.48 17.36 17.12 16.5333 16.4 15.84C15.7067 15.12 14.88 14.76 13.92 14.76C12.9867 14.76 12.16 15.12 11.44 15.84C10.72 16.5333 10.36 17.36 10.36 18.32C10.36 19.2533 10.72 20.08 11.44 20.8C12.16 21.4933 12.9867 21.84 13.92 21.84ZM36.5266 33.04C34.6066 33.0667 32.8866 32.6667 31.3666 31.84C29.8732 31.0133 28.6999 29.88 27.8466 28.44C27.0199 26.9733 26.5799 25.3467 26.5266 23.56C26.4999 21.7733 26.9132 20.1733 27.7666 18.76C28.6199 17.3467 29.8066 16.2267 31.3266 15.4C32.8732 14.5733 34.6066 14.16 36.5266 14.16C38.3932 14.16 40.0732 14.56 41.5666 15.36C43.0866 16.16 44.2866 17.28 45.1666 18.72C46.0466 20.16 46.5132 21.7733 46.5666 23.56C46.5932 25.2933 46.1799 26.88 45.3266 28.32C44.4732 29.7333 43.2732 30.8667 41.7266 31.72C40.2066 32.5733 38.4732 33.0133 36.5266 33.04ZM36.6466 27.2C37.3666 27.2 37.9932 26.92 38.5266 26.36C39.0599 25.8 39.3266 25.1467 39.3266 24.4C39.3266 23.6533 39.0599 23.0133 38.5266 22.48C37.9932 21.92 37.3666 21.64 36.6466 21.64C35.9266 21.64 35.2999 21.92 34.7666 22.48C34.2332 23.0133 33.9666 23.6533 33.9666 24.4C33.9666 25.1467 34.2332 25.8 34.7666 26.36C35.2999 26.92 35.9266 27.2 36.6466 27.2ZM54.9978 33.04C52.8111 33.04 51.3178 31.7867 50.5178 29.28C49.7445 26.7733 49.3578 23.5733 49.3578 19.68C49.3578 17.1467 49.8111 14.7733 50.7178 12.56C51.6511 10.32 53.0645 8.52 54.9578 7.16C56.8511 5.77333 59.1578 5.08 61.8778 5.08C64.0645 5.08 66.0511 5.54667 67.8378 6.48C69.6245 7.38667 71.0378 8.69333 72.0778 10.4C73.1445 12.1067 73.6778 14.08 73.6778 16.32C73.6778 18.9067 73.1578 21.08 72.1178 22.84C71.0778 24.6 69.7311 25.9067 68.0778 26.76C66.4245 27.6133 64.6778 28.04 62.8378 28.04C61.3445 28.04 59.9711 27.7867 58.7178 27.28C58.8778 28.1333 58.9578 28.7867 58.9578 29.24C58.9578 31.7733 57.6378 33.04 54.9978 33.04ZM62.2778 21.84C63.2378 21.84 64.0645 21.4933 64.7578 20.8C65.4778 20.08 65.8378 19.2533 65.8378 18.32C65.8378 17.36 65.4778 16.5333 64.7578 15.84C64.0645 15.12 63.2378 14.76 62.2778 14.76C61.3445 14.76 60.5178 15.12 59.7978 15.84C59.0778 16.5333 58.7178 17.36 58.7178 18.32C58.7178 19.2533 59.0778 20.08 59.7978 20.8C60.5178 21.4933 61.3445 21.84 62.2778 21.84ZM78.2059 6.88C78.9793 5.62666 80.2726 5 82.0859 5C83.8193 5 85.0726 5.6 85.8459 6.8C86.6459 8 87.0459 9.45333 87.0459 11.16C87.0459 12.5733 86.9126 14.1467 86.6459 15.88C86.3793 17.5867 86.0059 19.12 85.5259 20.48C85.2859 21.1467 84.8726 21.7333 84.2859 22.24C83.7259 22.72 82.9926 22.96 82.0859 22.96C81.1793 22.96 80.4326 22.72 79.8459 22.24C79.2593 21.7333 78.8459 21.1467 78.6059 20.48C78.1259 19.1467 77.7526 17.6533 77.4859 16C77.2193 14.32 77.0859 12.8 77.0859 11.44C77.0859 9.62666 77.4593 8.10666 78.2059 6.88ZM84.9659 31.56C84.1393 32.3867 83.1659 32.8 82.0459 32.8C80.9259 32.8 79.9526 32.3867 79.1259 31.56C78.2993 30.7333 77.8859 29.76 77.8859 28.64C77.8859 27.52 78.2993 26.5467 79.1259 25.72C79.9526 24.8933 80.9259 24.48 82.0459 24.48C83.1659 24.48 84.1393 24.8933 84.9659 25.72C85.7926 26.5467 86.2059 27.52 86.2059 28.64C86.2059 29.76 85.7926 30.7333 84.9659 31.56Z" fill="url(#paint0_linear_534_178)"/>
<defs>
<linearGradient id="paint0_linear_534_178" x1="-4.13415e-07" y1="3.5" x2="89" y2="28.5" gradientUnits="userSpaceOnUse">
<stop stop-color="#FF458D"/>
<stop offset="1" stop-color="#FF67A2"/>
</linearGradient>
</defs>
</svg>
